SplineFontDB: 3.0
FontName: forsythe-medium
FullName: Forsythe
FamilyName: Forsythe
Weight: Medium
Copyright: Copyright (c) 2012, Tristen Brown <tristen.brown@gmail.com>, with Reserved Font Name: 'Forsythe'.\n\nThis Font Software is licensed under the SIL Open Font License, Version 1.0.\nThe license available with a FAQ at:\nhttp://scripts.sil.org/OFL\n\nSeptember 2012
Version: 001.000
ItalicAngle: 0
UnderlinePosition: -100
UnderlineWidth: 50
Ascent: 800
Descent: 200
sfntRevision: 0x00010000
LayerCount: 2
Layer: 0 0 "Back"  1
Layer: 1 0 "Fore"  0
XUID: [1021 562 2126814528 11778759]
FSType: 0
OS2Version: 4
OS2_WeightWidthSlopeOnly: 0
OS2_UseTypoMetrics: 1
CreationTime: 1347737418
ModificationTime: 1349757380
PfmFamily: 17
TTFWeight: 500
TTFWidth: 5
LineGap: 90
VLineGap: 0
Panose: 2 0 6 3 0 0 0 0 0 0
OS2TypoAscent: 800
OS2TypoAOffset: 0
OS2TypoDescent: -200
OS2TypoDOffset: 0
OS2TypoLinegap: 90
OS2WinAscent: 600
OS2WinAOffset: 0
OS2WinDescent: 200
OS2WinDOffset: 0
HheadAscent: 600
HheadAOffset: 0
HheadDescent: -200
HheadDOffset: 0
OS2SubXSize: 650
OS2SubYSize: 700
OS2SubXOff: 0
OS2SubYOff: 140
OS2SupXSize: 650
OS2SupYSize: 700
OS2SupXOff: 0
OS2SupYOff: 480
OS2StrikeYSize: 49
OS2StrikeYPos: 258
OS2Vendor: 'PfEd'
OS2CodePages: 00000001.00000000
OS2UnicodeRanges: 00000001.00000000.00000000.00000000
Lookup: 258 0 0 "'kern' Horizontal Kerning in Latin lookup 0"  {"'kern' Horizontal Kerning in Latin lookup 0 subtable" [150,15,0] } ['kern' ('latn' <'dflt' > ) ]
MarkAttachClasses: 1
DEI: 91125
LangName: 1033 "" "" "" "FontForge 2.0 : Forsythe : 20-9-2012" 
Encoding: UnicodeBmp
UnicodeInterp: none
NameList: Adobe Glyph List
DisplaySize: -24
AntiAlias: 1
FitToEm: 1
WinInfo: 0 31 11
BeginPrivate: 6
BlueValues 19 [-200 -200 600 600]
BlueShift 1 0
StdHW 4 [96]
StdVW 4 [96]
StemSnapH 36 [80 88 94 95 96 122 144 176 200 212]
StemSnapV 4 [96]
EndPrivate
BeginChars: 65537 96

StartChar: .notdef
Encoding: 65536 -1 0
Width: 500
Flags: MW
HStem: 0 50<100 400 100 450> 483 50<100 400 100 100>
VStem: 50 50<50 50 50 483> 400 50<50 483 483 483>
LayerCount: 2
Fore
SplineSet
50 0 m 1
 50 533 l 1
 450 533 l 1
 450 0 l 1
 50 0 l 1
100 50 m 1
 400 50 l 1
 400 483 l 1
 100 483 l 1
 100 50 l 1
EndSplineSet
Validated: 1
EndChar

StartChar: exclam
Encoding: 33 33 2
Width: 146
GlyphClass: 2
Flags: MW
HStem: -200 96<25 121 25 121> 580 20G<25 121 121 121> 580 20G<25 121 121 121>
VStem: 25 96<-200 -104 -200 -104 -56 600>
LayerCount: 2
Fore
SplineSet
25 600 m 1xd0
 121 600 l 1
 121 -56 l 1
 25 -56 l 1
 25 600 l 1xd0
25 -104 m 1
 121 -104 l 1
 121 -200 l 1
 25 -200 l 1
 25 -104 l 1
EndSplineSet
Validated: 1
EndChar

StartChar: quotedbl
Encoding: 34 34 3
Width: 322
GlyphClass: 2
Flags: W
HStem: 400 200<25 134 188 297>
VStem: 25 109<400 600> 188 109<400 600>
LayerCount: 2
Fore
SplineSet
25 600 m 5
 134 600 l 5
 134 400 l 5
 25 400 l 5
 25 600 l 5
188 600 m 5
 297 600 l 5
 297 400 l 5
 188 400 l 5
 188 600 l 5
EndSplineSet
Validated: 1
EndChar

StartChar: numbersign
Encoding: 35 35 4
Width: 418
GlyphClass: 2
Flags: MW
HStem: -200 21G<73 169 73 73 249 345 249 249> -200 21G<73 169 73 73 249 345 249 249> 56 96<25 73 25 73 169 249 345 393> 248 96<25 73 25 73 169 249 345 393> 580 20G<73 169 169 169 249 345 345 345> 580 20G<73 169 169 169 249 345 345 345>
VStem: 73 96<-200 56 -200 56 152 248 344 600> 249 96<-200 56 -200 56 152 248 344 600>
LayerCount: 2
Fore
SplineSet
73 600 m 1xbb
 169 600 l 1
 169 344 l 1
 249 344 l 1
 249 600 l 1
 345 600 l 1
 345 344 l 1
 393 344 l 1
 393 248 l 1
 345 248 l 1
 345 152 l 1
 393 152 l 1
 393 56 l 1
 345 56 l 1
 345 -200 l 1
 249 -200 l 1
 249 56 l 1
 169 56 l 1
 169 -200 l 1
 73 -200 l 1
 73 56 l 1
 25 56 l 1
 25 152 l 1
 73 152 l 1
 73 248 l 1
 25 248 l 1
 25 344 l 1
 73 344 l 1
 73 600 l 1xbb
169 248 m 1
 169 152 l 1
 249 152 l 1
 249 248 l 1
 169 248 l 1
EndSplineSet
Validated: 1
EndChar

StartChar: dollar
Encoding: 36 36 5
Width: 338
GlyphClass: 2
Flags: W
HStem: -200 176<121.066 216.938> 152 96<121.062 216.938> 424 176<121.062 216.974>
VStem: 25 96<-23.9581 40 248.062 423.938> 121 96<-200 -120 520 600> 217 96<-23.9375 151.938 360 423.943>
CounterMasks: 1 e0
LayerCount: 2
Fore
SplineSet
121 600 m 5xe8
 217 600 l 5
 217 520 l 5xe8
 249 520 l 5
 280 512 313 488 313 456 c 6
 313 360 l 5
 217 360 l 5
 217 395 l 6
 217 424 217 424 185 424 c 6
 153 424 l 6
 121 424 121 424 121 392 c 6
 121 280 l 6
 121 248 121 248 153 248 c 6
 249 248 l 6
 281 248 313 216 313 184 c 6
 313 -56 l 6xf4
 313 -88 281 -120 249 -120 c 6
 217 -120 l 5
 217 -200 l 5
 121 -200 l 5
 121 -120 l 5xe8
 89 -120 l 6
 57 -120 25 -88 25 -56 c 6
 25 40 l 5
 121 40 l 5
 121 8 l 6
 121 -24 121.1875 -24 151 -24 c 6
 185 -24 l 6
 217 -24 217 -24 217 8 c 6
 217 120 l 6
 217 152 217 152 185 152 c 6
 89 152 l 6
 57 152 25 184 25 216 c 6
 25 456 l 6xf4
 25 488 57 520 89 520 c 6
 121 520 l 5
 121 600 l 5xe8
EndSplineSet
Validated: 524289
EndChar

StartChar: percent
Encoding: 37 37 6
Width: 322
GlyphClass: 2
Flags: MW
HStem: -200 96<25 297 201 297 201 297> 504 96<25 121 25 121>
VStem: 25 96<-200 -200 504 600> 201 96<-200 -104 -200 -104>
LayerCount: 2
Fore
SplineSet
25 600 m 1
 121 600 l 1
 121 504 l 1
 25 504 l 1
 25 600 l 1
201 600 m 1
 297 600 l 1
 121 -200 l 1
 25 -200 l 1
 201 600 l 1
201 -104 m 1
 297 -104 l 1
 297 -200 l 1
 201 -200 l 1
 201 -104 l 1
EndSplineSet
Validated: 1
EndChar

StartChar: ampersand
Encoding: 38 38 7
Width: 370
GlyphClass: 2
Flags: W
HStem: -200 96<121.089 200.938> 152 96<121 201 297 345> 504 96<121.061 249>
VStem: 25 96<-103.931 152 248 503.958> 201 96<-103.938 152 248 296>
CounterMasks: 1 e0
LayerCount: 2
Fore
SplineSet
89 600 m 6
 249 600 l 5
 249 504 l 5
 152 504 l 6
 121 504 121 504 121 472 c 6
 121 248 l 5
 201 248 l 5
 201 296 l 5
 297 296 l 5
 297 248 l 5
 345 248 l 5
 345 152 l 5
 297 152 l 5
 297 -136 l 6
 297 -168 265 -200 233 -200 c 6
 89 -200 l 6
 57 -200 25 -168 25 -136 c 6
 25 152 l 5
 89 184 l 5
 25 248 l 5
 25 536 l 6
 25 568 57 600 89 600 c 6
121 152 m 5
 121 -70 l 6
 121 -103.92578125 121 -104 153 -104 c 6
 169 -104 l 6
 201 -104 201 -104 201 -72 c 6
 201 152 l 5
 121 152 l 5
EndSplineSet
Validated: 524289
EndChar

StartChar: quotesingle
Encoding: 39 39 8
Width: 158
GlyphClass: 2
Flags: HMW
HStem: 400 200<25 133.812 25 133.812>
VStem: 25 108.812
LayerCount: 2
Fore
SplineSet
25 600 m 5
 134 600 l 5
 134 400 l 5
 25 400 l 5
 25 600 l 5
EndSplineSet
Validated: 1
EndChar

StartChar: parenleft
Encoding: 40 40 9
Width: 242
GlyphClass: 2
Flags: MW
HStem: -200 96<73 217 153.094 217 153.094 217> 504 96<136.644 152.046 152.046 152.563 152.563 217.001>
VStem: 25 96<-88 -72 -72 472 472 472.713> 25 192<-136 -104 -200 539>
LayerCount: 2
Fore
SplineSet
89 600 m 2xd0
 217.000976562 600 l 1
 217.000976562 504 l 1xd0
 152.563476562 504 l 1
 152.045898438 504 l 2
 121.2421875 504 121 503.828125 121 472.712890625 c 2
 121 472 l 1
 121 -72 l 2xe0
 121 -104 121.013671875 -104 153.09375 -104 c 2
 217 -104 l 1
 217 -200 l 1
 89 -200 l 2
 57 -200 25 -168 25 -136 c 2
 25 539 l 1
 25 539.002929688 l 2
 25 568.001953125 57.0009765625 600 89 600 c 2xd0
EndSplineSet
Validated: 524289
EndChar

StartChar: parenright
Encoding: 41 41 10
Width: 242
GlyphClass: 2
Flags: MW
HStem: -200 96<25 89 89 104.876 25 153 25 89> 503.999 96
VStem: 25 191.998 120.998 96
LayerCount: 2
Fore
SplineSet
153 600 m 2xe0
 184.999023438 600 216.998046875 568.001953125 216.998046875 539.002929688 c 2
 216.998046875 539 l 1
 217 -136 l 2
 217 -168 185 -200 153 -200 c 2
 25 -200 l 1
 25 -104 l 1xe0
 89 -104 l 2
 120.751953125 -104 120.998046875 -104 120.998046875 -71.2744140625 c 2
 120.998046875 -70.5009765625 l 1
 120.998046875 470.435546875 l 1xd0
 120.998046875 471.209960938 l 2
 120.998046875 504 120.751953125 504 89 504 c 2
 25 503.999023438 l 1
 25 599.999023438 l 1
 153 600 l 2xe0
EndSplineSet
Validated: 524289
EndChar

StartChar: asterisk
Encoding: 42 42 11
Width: 274
GlyphClass: 2
Flags: MW
HStem: 376 224<105 170 105 170>
VStem: 105 65<376 440 376 440>
LayerCount: 2
Fore
SplineSet
105 600 m 1
 170 600 l 1
 169 536 l 1
 217 568 l 1
 249 520 l 1
 201 488 l 1
 249 456 l 1
 217 408 l 1
 169 440 l 1
 170 376 l 1
 105 376 l 1
 105 440 l 1
 57 408 l 1
 25 456 l 1
 73 488 l 1
 25 520 l 1
 57 568 l 1
 105 536 l 1
 105 600 l 1
EndSplineSet
Validated: 1
EndChar

StartChar: plus
Encoding: 43 43 12
Width: 402
GlyphClass: 2
Flags: MW
HStem: 160 88<25 157 25 157 245 377>
VStem: 157 88<28 160 28 160 248 380>
LayerCount: 2
Fore
SplineSet
157 380 m 1
 245 380 l 1
 245 248 l 1
 377 248 l 1
 377 160 l 1
 245 160 l 1
 245 28 l 1
 157 28 l 1
 157 160 l 1
 25 160 l 1
 25 248 l 1
 157 248 l 1
 157 380 l 1
EndSplineSet
Validated: 1
EndChar

StartChar: comma
Encoding: 44 44 13
Width: 194
GlyphClass: 2
Flags: MW
HStem: -344 144
VStem: 25 144<-308 -236 -236 -236>
LayerCount: 2
Fore
SplineSet
169 -200 m 1
 169 -308 l 1
 25 -344 l 1
 25 -236 l 1
 169 -200 l 1
EndSplineSet
Validated: 1
EndChar

StartChar: hyphen
Encoding: 45 45 14
Width: 322
GlyphClass: 2
Flags: MW
HStem: 156 96<25 297 25 297>
VStem: 25 272<156 252 156 252>
LayerCount: 2
Fore
SplineSet
25 252 m 1
 297 252 l 1
 297 156 l 1
 25 156 l 1
 25 252 l 1
EndSplineSet
Validated: 1
EndChar

StartChar: period
Encoding: 46 46 15
Width: 146
GlyphClass: 2
Flags: MW
HStem: -200 96<25 121 25 121>
VStem: 25 96<-200 -104 -200 -104>
LayerCount: 2
Fore
SplineSet
25 -104 m 1
 121 -104 l 1
 121 -200 l 1
 25 -200 l 1
 25 -104 l 1
EndSplineSet
Validated: 1
EndChar

StartChar: slash
Encoding: 47 47 16
Width: 322
GlyphClass: 2
Flags: MW
HStem: -200 21G<25 121 25 25> -200 21G<25 121 25 25> 580 20G<201 297 297 297> 580 20G<201 297 297 297>
VStem: 25 272
LayerCount: 2
Fore
SplineSet
201 600 m 1xa8
 297 600 l 1
 121 -200 l 1
 25 -200 l 1
 201 600 l 1xa8
EndSplineSet
Validated: 1
EndChar

StartChar: zero
Encoding: 48 48 17
Width: 322
GlyphClass: 2
Flags: W
HStem: -200 96<121.062 200.938> 504 96<121.062 200.938>
VStem: 25 96<-103.937 503.937> 201 96<-103.937 503.937>
LayerCount: 2
Fore
SplineSet
89 600 m 6
 233 600 l 6
 265.025390625 600 297 568 297 536 c 6
 297 -136 l 6
 297 -168 265.025390625 -200 233 -200 c 6
 89 -200 l 6
 56.974609375 -200 25 -168 25 -136 c 6
 25 536 l 6
 25 568 56.974609375 600 89 600 c 6
153 504 m 6
 121 504 121 503.998046875 121 472 c 6
 121 -72 l 6
 121 -103.998047352 121 -104 152.988284825 -104 c 0
 153 -104 l 6
 169 -104 l 6
 169.011715175 -104 l 0
 201 -104 201 -103.998047352 201 -72 c 6
 201 472 l 6
 201 503.998046875 201 504 169 504 c 6
 153 504 l 6
EndSplineSet
Validated: 524289
EndChar

StartChar: one
Encoding: 49 49 18
Width: 194
GlyphClass: 2
Flags: MW
HStem: -200 21G<73 169 73 73> -200 21G<73 169 73 73> 504 96<25 73 25 73>
VStem: 25 144<504 600 -200 600> 73 96<-200 504 504 504 -200 600>
LayerCount: 2
Fore
SplineSet
25 600 m 1xb0
 73 600 l 1xa8
 169 600 l 1xb0
 169 -200 l 1
 73 -200 l 1
 73 504 l 1xa8
 25 504 l 1
 25 600 l 1xb0
EndSplineSet
Validated: 1
EndChar

StartChar: two
Encoding: 50 50 19
Width: 290
GlyphClass: 2
Flags: MW
HStem: -200 96<73.0527 265 153.031 264.75> 152 96<137.053 152.308 88.9062 153.031 88.9062 201.219> 504 96<25 136.969 25 201.094 136.969 136.984>
VStem: 25.3125 95.5625<-128 -64> 168.974 96.0264
CounterMasks: 1 e0
LayerCount: 2
Fore
SplineSet
25 600 m 1
 201.09375 600 l 2
 233.05078125 600 265 568 265 536 c 2
 265 208 l 2
 265 176 233.17578125 152 201.21875 152 c 2
 153.03125 152 l 2
 121.07421875 152 121.078125 152 121.03125 120 c 2
 120.875 -64 l 2
 121.03515625 -104 121.071289062 -104 153.03125 -104 c 2
 265 -104 l 1
 264.75 -200 l 1
 89.03125 -200 l 2
 57.07421875 -200 25.345703125 -160 25.3125 -128 c 2
 25 184 l 2
 25 216 56.94921875 248 88.90625 248 c 2
 136.96875 248 l 2
 167.646484375 248 168.973632812 248 168.973632812 276.3203125 c 0
 168.973632812 277.497070312 168.971679688 278.72265625 168.96875 280 c 2
 168.75 384 l 1
 168.75 480 l 1
 168.75 480.7578125 l 2
 168.75 503.998046875 168.58203125 504 136.984375 504 c 2
 136.96875 504 l 1
 25 504 l 1
 25 600 l 1
EndSplineSet
Validated: 524289
EndChar

StartChar: three
Encoding: 51 51 20
Width: 290
GlyphClass: 2
Flags: MW
HStem: -200 96<25 169 25 201 25 169> 152 96<25 169 25 169> 504 96<25 169 25 201>
VStem: 25 240<-152 -136 -136 -104 -104 -104 504 536> 169 96<-104 152 248 504 504 504>
CounterMasks: 1 e0
LayerCount: 2
Fore
SplineSet
25 600 m 1xf0
 201 600 l 2
 233 600 265 568 265 536 c 2xf0
 265 248 l 1
 201 184 l 1
 265 152 l 1xe8
 265 -136 l 2
 265 -168 233 -200 201 -200 c 2
 25 -200 l 1
 25 -104 l 1xf0
 169 -104 l 1
 169 152 l 1xe8
 25 152 l 1
 25 248 l 1xf0
 169 248 l 1
 169 504 l 1xe8
 25 504 l 1
 25 600 l 1xf0
EndSplineSet
Validated: 1
EndChar

StartChar: four
Encoding: 52 52 21
Width: 322
GlyphClass: 2
Flags: MW
HStem: -200 21G<201 297 201 201> -200 21G<201 297 201 201> 152 96<121 201 121 201> 580 20G<25 121 121 121 201 297 297 297> 580 20G<25 121 121 121 201 297 297 297>
VStem: 25 96<248 600 248 600 248 600> 201 96<-200 152 152 152 248 600 -200 600>
LayerCount: 2
Fore
SplineSet
25 600 m 1xb6
 121 600 l 1
 121 248 l 1
 201 248 l 1
 201 600 l 1
 297 600 l 1
 297 -200 l 1
 201 -200 l 1
 201 152 l 1
 25 152 l 1
 25 600 l 1xb6
EndSplineSet
Validated: 1
EndChar

StartChar: five
Encoding: 53 53 22
Width: 290
GlyphClass: 2
Flags: MW
HStem: -200 96<25 137.156 137.156 153.111 25 200.812 25 137.156> 152 96<72.9551 200.812 88.9375 200.812 137.156 200.812> 504 96<121.281 265 121.281 121.281>
VStem: 25 96.2812 169.094 95.6562
CounterMasks: 1 e0
LayerCount: 2
Fore
SplineSet
25 600 m 1
 265 600 l 1
 265 504 l 1
 121.28125 504 l 1
 121.28125 376 l 1
 121.28125 280 l 2
 121.28125 248 121.288085938 248 153.25 248 c 2
 200.8125 248 l 2
 232.77734375 248 264.75 216 264.75 184 c 2
 264.75 -136 l 2
 264.75 -168 232.77734375 -200 200.8125 -200 c 2
 25 -200 l 1
 25 -104 l 1
 137.15625 -104 l 2
 169.06640625 -104 169.09375 -104 169.09375 -72.1640625 c 2
 169.09375 -72 l 1
 169.09375 -40 l 1
 169.09375 56 l 1
 169.09375 120 l 1
 169.09375 120.1640625 l 2
 169.09375 151.999023438 169.06640625 152 137.162109375 152 c 2
 137.15625 152 l 1
 88.9375 152 l 2
 56.97265625 152 25 184 25 216 c 2
 25 600 l 1
EndSplineSet
Validated: 524289
EndChar

StartChar: six
Encoding: 54 54 23
Width: 322
GlyphClass: 2
Flags: MW
HStem: -200 96<73 152.938 152.414 152.938 152.938 168.907 168.907 184.884 152.414 233.031> 152.005 95.9952 580 20G<25 120.719 120.719 120.719> 580 20G<25 120.719 120.719 120.719>
VStem: 25 95.9375 200.875 96.125
LayerCount: 2
Fore
SplineSet
25 600 m 1xec
 120.71875 600 l 1
 121 248 l 1
 233 248 l 2
 265 248 297 216 297 184 c 2
 297 -136 l 2
 297 -168 265.015625 -200 233.03125 -200 c 2
 89 -200 l 2
 57 -200 25 -168 25 -136 c 2
 25 600 l 1xec
147.3125 152 m 0
 120.958984375 151.840820312 120.938476562 149.588867188 120.938476562 119 c 2
 120.938476562 -72 l 2
 120.938476562 -103.825195312 120.954101562 -104 152.4140625 -104 c 2
 152.938476562 -104 l 1
 168.907226562 -104 l 2
 200.860351562 -104 200.875976562 -104 200.875976562 -72.09375 c 2
 200.875976562 -72 l 1
 200.875976562 121 l 1
 200.875976562 121.965820312 l 2
 200.875976562 151.999023438 200.709960938 152 169.000976562 152 c 2
 152.938476562 152 l 2
 151.60546875 152 150.330078125 152.004882812 149.107421875 152.004882812 c 0
 148.49609375 152.004882812 147.8984375 152.00390625 147.3125 152 c 0
EndSplineSet
Validated: 524289
EndChar

StartChar: seven
Encoding: 55 55 24
Width: 292
GlyphClass: 2
Flags: WO
HStem: -200 21G<172 267> 506 94<0 172>
VStem: 172 95<-200 506>
LayerCount: 2
Fore
SplineSet
0 600 m 5
 267 600 l 5
 267 -200 l 5
 172 -200 l 5
 172 506 l 5
 0 506 l 5
 0 600 l 5
EndSplineSet
Validated: 1
EndChar

StartChar: eight
Encoding: 56 56 25
Width: 322
GlyphClass: 2
Flags: W
HStem: -200 96<121.062 200.937> 152 96<121.089 200.957> 504 96<121.062 200.937>
VStem: 25 96<-103.938 151.936 248.08 503.938> 201 96<-103.938 151.914 248.086 503.938>
CounterMasks: 1 e0
LayerCount: 2
Fore
SplineSet
89 600 m 6
 233 600 l 6
 264.993164062 600 297 568 297 536 c 6
 296.5 248 l 5
 233 184 l 5
 297 152 l 5
 297 -136 l 6
 297 -168 264.993164062 -200 233 -200 c 6
 89 -200 l 6
 57 -200 25 -168 25 -136 c 6
 25 152 l 5
 89 184 l 5
 25 248 l 5
 25 536 l 6
 25.8876953125 567.987304688 57 600 89 600 c 6
153 504 m 6
 121 504 121 504 121 472 c 6
 121 281 l 6
 121 248.37109375 121.006835938 248 153 248 c 6
 168 248 l 6
 201 248 201 248 201 279 c 6
 201 472 l 6
 201 504 200.993164062 504 169 504 c 6
 153 504 l 6
153 152 m 6
 121 152 121 152 121 119 c 6
 121 -72 l 6
 121 -104 121 -104 153 -104 c 6
 169 -104 l 6
 200.994140625 -104 201 -104 201 -72 c 6
 201 121 l 6
 201 152 201 152 168 152 c 6
 153 152 l 6
EndSplineSet
Validated: 524289
EndChar

StartChar: nine
Encoding: 57 57 26
Width: 322
GlyphClass: 2
Flags: MW
HStem: -200 21G<201.281 297 201.281 201.281> -200 21G<201.281 297 201.281 201.281> 152 96<73 169.063 153.001 169.063 169.063 169.183 169.183 185.115 153.001 201> 504.003 95.9965
VStem: 25 96.125 201.281 95.7188
LayerCount: 2
Fore
SplineSet
88.96875 600 m 2xbc
 233 600 l 2
 265 600 297 568 297 536 c 2
 297 -200 l 1
 201.28125 -200 l 1
 201 152 l 1
 89 152 l 2
 57 152 25 184 25 216 c 2
 25 536 l 2
 25 568 56.984375 600 88.96875 600 c 2xbc
147.46875 504 m 0
 121.134765625 503.8828125 121.125976562 502.002929688 121.125976562 472.06640625 c 2
 121.125976562 472 l 1
 121.125976562 279 l 1
 121.125976562 278.034179688 l 2
 121.125976562 248.000976562 121.291992188 248 153.000976562 248 c 2
 169.063476562 248 l 1
 169.182617188 248 l 2
 201.047851562 248 201.063476562 248.412109375 201.063476562 281 c 2
 201.063476562 472 l 2
 201.063476562 503.825195312 201.047851562 504 169.587890625 504 c 2
 169.063476562 504 l 1
 153.094726562 504 l 2
 151.76171875 504 150.486328125 504.00390625 149.263671875 504.00390625 c 0
 148.65234375 504.00390625 148.0546875 504.002929688 147.46875 504 c 0
EndSplineSet
Validated: 524289
EndChar

StartChar: colon
Encoding: 58 58 27
Width: 146
GlyphClass: 2
Flags: MW
HStem: -40 176<25 121 25 121> 264 176<25 121 25 121>
VStem: 25 96<-40 136 -40 136 264 440>
LayerCount: 2
Fore
SplineSet
25 440 m 1
 121 440 l 1
 121 264 l 1
 25 264 l 1
 25 440 l 1
25 136 m 1
 121 136 l 1
 121 -40 l 1
 25 -40 l 1
 25 136 l 1
EndSplineSet
Validated: 1
EndChar

StartChar: semicolon
Encoding: 59 59 28
Width: 146
GlyphClass: 2
Flags: MW
HStem: -200 21G<25 121 25 25> 264 176<25 121 25 121>
VStem: 25 96<-200 136 -200 136 264 440>
LayerCount: 2
Fore
SplineSet
25 440 m 1
 121 440 l 1
 121 264 l 1
 25 264 l 1
 25 440 l 1
25 136 m 1
 121 136 l 1
 121 -200 l 1
 25 -200 l 1
 25 136 l 1
EndSplineSet
Validated: 1
EndChar

StartChar: less
Encoding: 60 60 29
Width: 370
GlyphClass: 2
Flags: MW
VStem: 25 320<-186 246 -186 246>
LayerCount: 2
Fore
SplineSet
345 582 m 1
 345 438 l 1
 105 198 l 1
 345 -42 l 1
 345 -186 l 1
 25 150 l 1
 25 246 l 1
 345 582 l 1
EndSplineSet
Validated: 1
EndChar

StartChar: equal
Encoding: 61 61 30
Width: 322
GlyphClass: 2
Flags: MW
HStem: 60 96<25 297 25 297> 252 96<25 297 25 297>
VStem: 25 272<60 156 60 156 252 348 60 348>
LayerCount: 2
Fore
SplineSet
25 348 m 1
 297 348 l 1
 297 252 l 1
 25 252 l 1
 25 348 l 1
25 156 m 1
 297 156 l 1
 297 60 l 1
 25 60 l 1
 25 156 l 1
EndSplineSet
Validated: 1
EndChar

StartChar: greater
Encoding: 62 62 31
Width: 370
GlyphClass: 2
Flags: MW
VStem: 25 320<-185 247 -41 247 151 583>
LayerCount: 2
Fore
SplineSet
25 583 m 1
 345 247 l 1
 345 151 l 1
 25 -185 l 1
 25 -41 l 1
 265 199 l 1
 25 439 l 1
 25 583 l 1
EndSplineSet
Validated: 1
EndChar

StartChar: question
Encoding: 63 63 32
Width: 306
GlyphClass: 2
Flags: W
HStem: -200 96<25 121> 152 96<121.077 184.936> 504 96<25 184.999>
VStem: 25 96<-200 -104 -56 151.938> 185 96<248.062 503.953>
CounterMasks: 1 e0
LayerCount: 2
Fore
SplineSet
25 600 m 5
 217 600 l 6
 248.96484375 600 281 568 281 536 c 6
 281 208 l 6
 281 176 248.96484375 152 217 152 c 6
 153 152 l 6
 121.03515625 152 121.046875 152 121 120 c 6
 121 -56 l 5
 25 -56 l 5
 25 182 l 6
 25 216 57 248 89 248 c 6
 153 248 l 6
 184.961914062 248 185 248 185 280 c 6
 185 480 l 6
 185 503.998047511 184.961926456 504 153.015600058 504 c 0
 153 504 l 6
 25 504 l 5
 25 600 l 5
25 -104 m 5
 121 -104 l 5
 121 -200 l 5
 25 -200 l 5
 25 -104 l 5
EndSplineSet
Validated: 524289
EndChar

StartChar: at
Encoding: 64 64 33
Width: 450
GlyphClass: 2
Flags: MW
HStem: -200 96<72.8687 152.688 152.676 152.688 152.688 424> -24 96<217.1 281.562 281.56 281.562 281.562 313.562 313.562 313.565 313.565 320.576 281.56 360.281> 280.004 95.9961 504 96<136.595 151.95 151.95 152.688 152.688 296.312 296.312 296.857>
VStem: 25 95.75<-87.999 -72 -72 472> 168.656 96.3438 328.89 96.1104
LayerCount: 2
Fore
SplineSet
88.84375 600 m 2
 360.15625 600 l 2
 392.104492188 600 425 568 425 536 c 2
 425 40 l 2
 425 8 393.002929688 -24 360.28125 -24 c 2
 233.0625 -24 l 2
 201.137695312 -24 169.21875 8 169.21875 40 c 2
 168.65625 312 l 1
 168.65625 312.099609375 l 2
 168.65625 344.06640625 201.033203125 376 232.5 376 c 2
 328.21875 376 l 1
 328.21875 472 l 1
 325.951171875 503.740234375 328.744140625 504 296.857421875 504 c 2
 296.3125 504 l 1
 152.6875 504 l 1
 151.950195312 504 l 2
 121.240234375 504 120.749023438 503.76953125 120.749023438 474.946289062 c 0
 120.749023438 473.99609375 120.75 473.013671875 120.75 472 c 2
 120.75 -72 l 2
 120.75 -103.998046875 120.97265625 -104 152.67578125 -104 c 2
 152.6875 -104 l 1
 425 -104 l 1
 424 -200 l 1
 88.84375 -200 l 2
 56.8935546875 -200 25 -168 25 -136 c 2
 25 536 l 2
 25 568 56.8935546875 600 88.84375 600 c 2
290.65625 280 m 0
 266.715820312 279.895507812 264.961914062 278.36328125 264.961914062 256.30859375 c 0
 264.961914062 253.811523438 264.984375 251.05078125 265 248 c 2
 265.5625 104 l 2
 265.690429688 72.0009765625 265.5625 72 281.559570312 72 c 2
 281.5625 72 l 1
 313.5625 72 l 1
 313.565429688 72 l 2
 327.586914062 72 328.889648438 72.0009765625 328.889648438 93.5615234375 c 0
 328.889648438 96.5947265625 328.86328125 100.053710938 328.84375 104 c 2
 328.28125 248 l 2
 328.154296875 279.75390625 328.797851562 280 297.081054688 280 c 2
 296.34375 280 l 2
 294.991210938 280 293.703125 280.00390625 292.469726562 280.00390625 c 0
 291.852539062 280.00390625 291.248046875 280.002929688 290.65625 280 c 0
EndSplineSet
Validated: 524289
EndChar

StartChar: A
Encoding: 65 65 34
Width: 404
GlyphClass: 2
Flags: HMW
HStem: -200 21G<10 106 10 10 298 394 298 298> -200 21G<10 106 10 10 298 394 298 298> 40 80<157 247 157 259.5 144.5 247> 580 20G<154 250 250 250> 580 20G<154 250 250 250>
LayerCount: 2
Fore
SplineSet
154 600 m 1xb0
 250 600 l 1
 394 -200 l 1
 298 -200 l 1
 259.5 40 l 1
 144.5 40 l 1
 106 -200 l 1
 10 -200 l 1
 154 600 l 1xb0
202 368 m 1
 157 120 l 1
 247 120 l 1
 202 368 l 1
EndSplineSet
Validated: 524289
EndChar

StartChar: B
Encoding: 66 66 35
Width: 370
GlyphClass: 2
Flags: MW
HStem: -200 96 152.003 95.9965 504.003 95.9965
VStem: 25 95.9688 248.938 96.0625
LayerCount: 2
Fore
SplineSet
25 600 m 1
 281.03125 600 l 2
 313.024414062 600 345 568 345 536 c 2
 345 248 l 1
 281 184 l 1
 345 152 l 1
 345 -136 l 2
 345 -168 312.930664062 -200 280.9375 -200 c 2
 25 -200 l 1
 25 600 l 1
147.28125 504 m 0
 123.220703125 503.89453125 120.913085938 502.345703125 120.913085938 479.907226562 c 0
 120.913085938 477.516601562 120.939453125 474.888671875 120.96875 472 c 2
 120.96875 281 l 2
 120.96875 248.37109375 120.975585938 248 152.96875 248 c 2
 216.71875 248 l 2
 248.62890625 248 248.9375 248 248.9375 279 c 2
 248.9375 472 l 2
 248.9375 504 248.930664062 504 216.9375 504 c 2
 152.96875 504 l 2
 151.622070312 504 150.33203125 504.00390625 149.095703125 504.00390625 c 0
 148.477539062 504.00390625 147.873046875 504.002929688 147.28125 504 c 0
147.28125 151.999023438 m 0
 121.235351562 151.880859375 120.96875 150.016601562 120.96875 120.866210938 c 2
 120.96875 118.999023438 l 1
 120.96875 -72.0009765625 l 1
 120.96875 -73.3359375 l 2
 120.96875 -104.000976562 121.192382812 -104.000976562 152.96875 -104.000976562 c 2
 216.9375 -104.000976562 l 2
 248.930664062 -104.000976562 248.9375 -104.000976562 248.9375 -72.0009765625 c 2
 248.9375 120.999023438 l 2
 248.9375 151.999023438 248.711914062 151.999023438 216.71875 151.999023438 c 2
 152.96875 151.999023438 l 2
 151.622070312 151.999023438 150.331054688 152.002929688 149.094726562 152.002929688 c 0
 148.4765625 152.002929688 147.872070312 152.001953125 147.28125 151.999023438 c 0
EndSplineSet
Validated: 524289
EndChar

StartChar: C
Encoding: 67 67 36
Width: 338
GlyphClass: 2
Flags: MW
HStem: -200 96 503.906 95.9688
VStem: 25.001 96 217.001 96
LayerCount: 2
Fore
SplineSet
249.000976562 600 m 2
 280.98828125 600 313 567.986328125 313 535.999023438 c 2
 313 439.999023438 l 1
 217 439.999023438 l 1
 217 503.999023438 l 1
 153 503.905273438 l 2
 121 503.905273438 121 503.901367188 121 471.905273438 c 2
 121 -72.0009765625 l 2
 121 -103.700195312 121 -104.000976562 152.107421875 -104.000976562 c 2
 153 -104.000976562 l 1
 217 -104.000976562 l 1
 217 -40.0322265625 l 1
 313 -40.0009765625 l 1
 313 -136.000976562 l 2
 313 -168.000976562 281 -200.000976562 249 -200.000976562 c 2
 89 -200.000976562 l 2
 57 -200 25 -168.000976562 25 -136.000976562 c 2
 25 535.999023438 l 2
 25 567.935546875 56.873046875 599.875 88.8095703125 599.875 c 2
 89.0009765625 599.875 l 1
 249.000976562 600 l 2
EndSplineSet
Validated: 524289
EndChar

StartChar: D
Encoding: 68 68 37
Width: 354
GlyphClass: 2
Flags: MW
HStem: -200 96.002<150.488 150.494 150.494 201.131 201.131 201.143 201.143 217.032 150.488 264.947> 504.001 95.998<200.895 280.96 200.895 280.96>
VStem: 25 95.8418<-87.9976 -71.998 -71.998 472.001> 232.922 96.0781<-71.998 472.001 472.001 472.492>
LayerCount: 2
Fore
SplineSet
25 600 m 1
 264.947265625 599.999023438 l 2
 296.97265625 599.999023438 329 567.999023438 329 535.999023438 c 2
 329 -136 l 2
 329 -168 296.97265625 -200 264.947265625 -200 c 2
 25 -200 l 1
 25 600 l 1
152.869140625 503.999023438 m 2
 122.6015625 503.998046875 120.809570312 503.998046875 120.809570312 482.07421875 c 0
 120.809570312 479.129882812 120.841796875 475.790039062 120.841796875 472.000976562 c 2
 120.841796875 -71.998046875 l 2
 120.841796875 -103.997070312 120.841796875 -103.998046875 150.48828125 -103.998046875 c 2
 150.494140625 -103.998046875 l 1
 201.130859375 -103.998046875 l 1
 201.142578125 -103.998046875 l 2
 232.921875 -103.998046875 232.921875 -103.99609375 232.921875 -71.998046875 c 2
 232.921875 472.000976562 l 2
 232.921875 472.982421875 232.922851562 473.93359375 232.922851562 474.85546875 c 0
 232.922851562 503.836914062 232.444335938 504.000976562 201.418945312 504.000976562 c 2
 200.89453125 504.000976562 l 1
 152.869140625 503.999023438 l 2
EndSplineSet
Validated: 524289
EndChar

StartChar: E
Encoding: 69 69 38
Width: 306
GlyphClass: 2
Flags: MW
HStem: -200 96<121 281 121 281> 152 96<121 281 121 281> 504 96<121 281 121 121>
VStem: 25 96<-104 152 248 504> 25 256<-200 -104 152 248 504 600>
CounterMasks: 1 e0
LayerCount: 2
Fore
SplineSet
25 600 m 1xe8
 281 600 l 1
 281 504 l 1xe8
 121 504 l 1
 121 248 l 1xf0
 281 248 l 1
 281 152 l 1xe8
 121 152 l 1
 121 -104 l 1xf0
 281 -104 l 1
 281 -200 l 1
 25 -200 l 1
 25 600 l 1xe8
EndSplineSet
Validated: 1
EndChar

StartChar: F
Encoding: 70 70 39
Width: 306
GlyphClass: 2
Flags: MW
HStem: -200 21G<25 121 25 25> -200 21G<25 121 25 25> 152 96<121 281 121 281> 504 96<121 281 121 121>
VStem: 25 96<-200 152 248 504> 25 256<152 248 504 600>
LayerCount: 2
Fore
SplineSet
25 600 m 1xb4
 281 600 l 1
 281 504 l 1xb4
 121 504 l 1
 121 248 l 1xb8
 281 248 l 1
 281 152 l 1xb4
 121 152 l 1
 121 -200 l 1
 25 -200 l 1xb8
 25 600 l 1xb4
EndSplineSet
Validated: 1
EndChar

StartChar: G
Encoding: 71 71 40
Width: 354
GlyphClass: 2
Flags: MW
HStem: -200 96 152 96 503.906 95.9688
VStem: 25.001 96 169.001 160 233.001 96
LayerCount: 2
Fore
SplineSet
265.000976562 600 m 2xf4
 296.990234375 600 329 567.989257812 329 535.999023438 c 2
 329 439.999023438 l 1
 233 439.999023438 l 1
 233 503.999023438 l 1
 153 503.905273438 l 2
 121 503.905273438 121 503.901367188 121 471.905273438 c 2
 121 -72.0009765625 l 2
 121 -103.700195312 121 -104.000976562 152.107421875 -104.000976562 c 2
 153 -104.000976562 l 1
 233 -104.000976562 l 1
 233 151.967773438 l 1xf4
 169 151.999023438 l 1
 169 247.999023438 l 1
 329 247.999023438 l 1xf8
 329 -136.000976562 l 2
 329 -168.001953125 297 -200.000976562 265 -200.000976562 c 2
 89 -200.000976562 l 2
 57 -200 25 -168.001953125 25 -136.000976562 c 2
 25 535.999023438 l 2
 25 567.936523438 56.873046875 599.875 88.8095703125 599.875 c 2
 89.0009765625 599.875 l 1
 265.000976562 600 l 2xf4
EndSplineSet
Validated: 524289
EndChar

StartChar: H
Encoding: 72 72 41
Width: 354
GlyphClass: 2
Flags: MW
HStem: -200 21G<25 121 25 25 233 329.001 233 233> 152 96<121 233 121 233> 580 20G<25 121 121 121 233 329.001 329.001 329.001>
VStem: 25 96<-200 152 248 600> 233 96.001<-200 152 152 152 248 600 -200 600>
LayerCount: 2
Fore
SplineSet
25 600 m 1
 121 600 l 1
 121 248 l 1
 233 248 l 1
 233 600 l 1
 329.000976562 600 l 1
 329.000976562 -200 l 1
 233 -200 l 1
 233 152 l 1
 121 152 l 1
 121 -200 l 1
 25 -200 l 1
 25 600 l 1
EndSplineSet
Validated: 524289
EndChar

StartChar: I
Encoding: 73 73 42
Width: 146
GlyphClass: 2
Flags: MW
HStem: -200 21G<25 121 25 25> -200 21G<25 121 25 25> 580 20G<25 121 121 121> 580 20G<25 121 121 121>
VStem: 25 96<-200 600 -200 600>
LayerCount: 2
Fore
SplineSet
25 600 m 1xa8
 121 600 l 1
 121 -200 l 1
 25 -200 l 1
 25 600 l 1xa8
EndSplineSet
Validated: 1
EndChar

StartChar: J
Encoding: 74 74 43
Width: 322
GlyphClass: 2
Flags: MW
HStem: -200 96<72.9873 153 152.988 153 153 171.5 171.5 171.506 171.506 186.179 152.988 233> 580 20G<201.001 297 297 297> 580 20G<201.001 297 297 297>
VStem: 25.001 96 201.001 96
LayerCount: 2
Fore
SplineSet
201.000976562 600 m 1xd8
 297 600 l 1
 297 -136 l 2
 297 -168 265 -200 233 -200 c 2
 89 -200 l 2
 56.974609375 -200 25 -168 25 -136 c 2
 25 120 l 1
 121 120 l 1
 121 -72 l 2
 121 -103.998046875 121.208007812 -104 152.98828125 -104 c 2
 153 -104 l 1
 171.5 -104 l 1
 171.505859375 -104 l 2
 200.8515625 -104 201.000976562 -103.999023438 201.000976562 -72.966796875 c 2
 201.000976562 -72 l 1
 201.000976562 600 l 1xd8
EndSplineSet
Validated: 524289
EndChar

StartChar: K
Encoding: 75 75 44
Width: 370
GlyphClass: 2
Flags: MW
HStem: -200 21G<25 120.501 25 25 248.504 344.504 248.504 248.504> 152 96<128.997 185 137 185 185 193 137 233> 580 20G<25 121 121 121 248.997 344.997 344.997 344.997>
VStem: 25 95.501<-200 600> 248.504 96<-200 -200>
LayerCount: 2
Fore
SplineSet
25 600 m 1
 121 600 l 1
 121 264 l 2
 121 248 121 248 137 248 c 2
 185 248 l 2
 201 248 225 248 225 264 c 1
 248.997070312 600 l 1
 344.997070312 600 l 1
 313 248 l 1
 281 184 l 1
 345 152 l 1
 344.50390625 -200 l 1
 248.50390625 -200 l 1
 249 136 l 2
 249 152 249 152 233 152 c 2
 136.997070312 152 l 2
 120.997070312 152 120.997070312 152 120.997070312 136 c 2
 120.500976562 -200 l 1
 25 -200 l 1
 25 600 l 1
EndSplineSet
Validated: 524289
EndChar

StartChar: L
Encoding: 76 76 45
Width: 259
GlyphClass: 2
Flags: MW
HStem: -200 96<121 249 121 249> 580 20G<25 121 121 121> 580 20G<25 121 121 121>
VStem: 25 96<-104 600 -104 600 -104 600>
LayerCount: 2
Fore
SplineSet
25 600 m 1xd0
 121 600 l 1
 121 -104 l 1
 249 -104 l 1
 249 -200 l 1
 25 -200 l 1
 25 600 l 1xd0
EndSplineSet
Validated: 1
EndChar

StartChar: M
Encoding: 77 77 46
Width: 434
GlyphClass: 2
Flags: W
HStem: -201 21G<25 121 313 408.999> 579 20G<25 95.6711 338.339 408.999>
VStem: 25 96<-201 279> 313 95.999<-201 279>
LayerCount: 2
Fore
SplineSet
25 -201 m 5
 25 599 l 5
 89 599 l 5
 217.084960938 215 l 5
 345.000976562 599 l 5
 408.999023438 599 l 5
 408.999023438 -201 l 5
 313 -201 l 5
 313.002929688 279 l 5
 217.001953125 7 l 5
 121.001953125 279 l 5
 121 -201 l 5
 25 -201 l 5
EndSplineSet
Validated: 524289
EndChar

StartChar: N
Encoding: 78 78 47
Width: 402
GlyphClass: 2
Flags: MW
HStem: -200 21G<25 121.031 25 25 280.969 377 280.969 280.969> -200 21G<25 121.031 25 25 280.969 377 280.969 280.969> 580 20G<25 121.094 121.094 121.094 280.969 377 377 377> 580 20G<25 121.094 121.094 121.094 280.969 377 377 377>
VStem: 25 96.0312 280.969 96.0312
LayerCount: 2
Fore
SplineSet
25 600 m 1xac
 121.09375 600 l 1
 280.96875 56 l 1
 280.96875 600 l 1
 377 600 l 1
 377 -200 l 1
 280.96875 -200 l 1
 120.6875 344 l 1
 121.03125 -200 l 1
 25 -200 l 1
 25 600 l 1xac
EndSplineSet
Validated: 524289
EndChar

StartChar: O
Encoding: 79 79 48
Width: 338
GlyphClass: 2
Flags: MW
HStem: -200 96 504.003 95.9965
VStem: 25 96<-88.0103 -72.0234 -72.0234 -71.998 -71.998 472.002> 217 96<-72.0811 -71.999 -71.999 472.001 472.001 474.861 474.861 489.315>
LayerCount: 2
Fore
SplineSet
89 600 m 2
 249 600 l 2
 281 600 313 568 313 536 c 2
 313 -136 l 2
 313 -168 281 -200 249 -200 c 2
 89 -200 l 2
 57 -200 25 -168 25 -136 c 2
 25 536 l 2
 25 568 57 600 89 600 c 2
147 504 m 0
 122.506835938 503.896484375 120.967773438 502.446289062 120.967773438 482.030273438 c 0
 120.967773438 479.096679688 121 475.771484375 121 472.001953125 c 2
 121 -71.998046875 l 1
 121 -72.0234375 l 2
 121 -103.997070312 121.00390625 -103.998046875 150.619140625 -103.998046875 c 2
 150.625 -103.998046875 l 1
 185.25 -103.998046875 l 1
 185.26171875 -103.998046875 l 2
 216.986328125 -103.998046875 217 -103.99609375 217 -72.0810546875 c 2
 217 -71.9990234375 l 1
 217 472.000976562 l 1
 217 474.861328125 l 2
 217 503.768554688 216.5234375 504 185.73828125 504 c 2
 184.999023438 504 l 1
 152.999023438 504 l 2
 151.5703125 504 150.209960938 504.00390625 148.908203125 504.00390625 c 0
 148.2578125 504.00390625 147.622070312 504.002929688 147 504 c 0
EndSplineSet
Validated: 524289
EndChar

StartChar: P
Encoding: 80 80 49
Width: 370
GlyphClass: 2
Flags: MW
HStem: -200 21G<25 120.719 25 25> -200 21G<25 120.719 25 25> 152 96<152.937 234.905 152.937 281 121 234.905> 504.23 95.7702
VStem: 25 95.9375 248.875 96.125
LayerCount: 2
Fore
SplineSet
25 600 m 1xbc
 281.03125 600 l 2
 313.015625 600 345 568 345 536 c 2
 345 216 l 2
 345 184 313 152 281 152 c 2
 121 152 l 1
 120.71875 -200 l 1
 25 -200 l 1
 25 600 l 1xbc
138.53125 504.21875 m 0
 137.258789062 504.1953125 136.060546875 504.125 134.936523438 504 c 0
 121.455078125 502.5 120.936523438 496 120.936523438 472 c 2
 120.936523438 281 l 2
 120.936523438 248.37109375 120.952148438 248 152.936523438 248 c 2
 234.905273438 248 l 1
 248.38671875 249.4296875 248.874023438 256.119140625 248.874023438 279 c 2
 248.874023438 472 l 1
 248.874023438 472.09375 l 2
 248.874023438 504 248.858398438 504 216.905273438 504 c 2
 152.936523438 504 l 2
 147.591796875 504 143.361328125 504.229492188 139.80078125 504.229492188 c 0
 139.368164062 504.229492188 138.9453125 504.2265625 138.53125 504.21875 c 0
EndSplineSet
Validated: 524289
EndChar

StartChar: Q
Encoding: 81 81 50
Width: 354
GlyphClass: 2
Flags: MW
HStem: -200 96 40 96 504.003 95.9965
VStem: 25 96<-87.998 -71.999 -71.999 472.001> 185 144<40.001 136.001 136.001 136.001> 233 96<-71.999 40.001 40.001 40.001 136.001 472.001 472.001 472.517>
LayerCount: 2
Fore
SplineSet
89 600 m 2xf4
 201 600 l 1
 265 600 l 2
 297.025390625 600 329 568 329 536 c 2
 329 -136 l 2
 329 -168 297.025390625 -200 265 -200 c 2
 201 -200 l 1
 89 -200 l 2
 56.974609375 -200 25 -168 25 -136 c 2
 25 536 l 2
 25 568 56.974609375 600 89 600 c 2xf4
147.28125 504 m 0
 121.442382812 503.887695312 120.999023438 502.125976562 120.999023438 474.986328125 c 0
 120.999023438 474.0234375 121 473.028320312 121 472.000976562 c 2
 121 -71.9990234375 l 2
 121 -103.997070312 121.209960938 -103.999023438 152.98828125 -103.999023438 c 2
 153 -103.999023438 l 1
 201 -103.999023438 l 1
 201.01171875 -103.999023438 l 2
 232.791992188 -103.999023438 233 -103.997070312 233 -71.9990234375 c 2
 233 40.0009765625 l 1xf4
 185 40.0009765625 l 1
 185 136.000976562 l 1xf8
 233 136.000976562 l 1
 233 472.000976562 l 2
 233 473.032226562 233.000976562 474.030273438 233.000976562 474.99609375 c 0
 233.000976562 503.76953125 232.500976562 504 201.739257812 504 c 2
 201 504 l 1
 153 504 l 2
 151.643554688 504 150.346679688 504.00390625 149.104492188 504.00390625 c 0
 148.483398438 504.00390625 147.875976562 504.002929688 147.28125 504 c 0
EndSplineSet
Validated: 524289
EndChar

StartChar: R
Encoding: 82 82 51
Width: 370
GlyphClass: 2
Flags: MW
HStem: -200 21G<25 120.719 25 25 248.656 344.594 248.656 248.656> -200 21G<25 120.719 25 25 248.656 344.594 248.656 248.656> 152 96<152.938 153.031 153.031 216.75> 504.229 95.7705
VStem: 25 95.9766 248.656 95.9375
LayerCount: 2
Fore
SplineSet
25 600 m 1xbc
 281.03125 600 l 2
 313.015625 600 345 568 345 536 c 2
 344.6875 248 l 1
 280.71875 184 l 1
 344.90625 152 l 1
 344.59375 -200 l 1
 248.65625 -200 l 1
 248.96875 121 l 2
 248.969726562 121.779296875 248.970703125 122.5390625 248.970703125 123.279296875 c 0
 248.970703125 152 247.930664062 152 216.75 152 c 2
 153.03125 152 l 2
 123.639648438 152 120.9765625 152 120.9765625 127.143554688 c 0
 120.9765625 124.680664062 121.001953125 121.974609375 121.03125 119 c 2
 120.71875 -200 l 1
 25 -200 l 1
 25 600 l 1xbc
138.53125 504.21875 m 0
 137.258789062 504.1953125 136.061523438 504.125 134.9375 504 c 0
 121.456054688 502.5 120.9375 496 120.9375 472 c 2
 120.9375 281 l 2
 120.9375 248.37109375 120.953125 248 152.9375 248 c 2
 234.90625 248 l 1
 248.387695312 249.4296875 248.875 256.119140625 248.875 279 c 2
 248.875 472 l 1
 248.875 472.09375 l 2
 248.875 504 248.859375 504 216.90625 504 c 2
 152.9375 504 l 2
 147.592773438 504 143.362304688 504.229492188 139.801757812 504.229492188 c 0
 139.368164062 504.229492188 138.9453125 504.2265625 138.53125 504.21875 c 0
EndSplineSet
Validated: 524289
EndChar

StartChar: S
Encoding: 83 83 52
Width: 338
GlyphClass: 2
Flags: MW
HStem: -200 96<72.9551 185.156 154.25 185.156 185.156 201.139 154.25 248.75> 152 96<72.9551 248.75 153.188 185.156 185.156 185.162> 504 96<137.207 153.188 153.188 185>
VStem: 25 96.2188 217.125 95.5625<-72 -40 -40 56 56 120 120 136>
CounterMasks: 1 e0
LayerCount: 2
Fore
SplineSet
88.9375 600 m 2
 248.75 600 l 2
 280.71484375 600 312.6875 568 312.6875 536 c 2
 313 440 l 1
 217.09375 440 l 1
 217.09375 472.25 l 2
 216.98828125 504 217 504 185 504 c 2
 153.1875 504 l 2
 121.225585938 504 121.21875 504 121.21875 472 c 2
 121.21875 376 l 1
 121.21875 280 l 2
 121.21875 248 121.225585938 248 153.1875 248 c 2
 248.75 248 l 2
 280.71484375 248 312.6875 216 312.6875 184 c 2
 312.6875 -136 l 2
 312.6875 -168 280.71484375 -200 248.75 -200 c 2
 88.9375 -200 l 2
 56.97265625 -200 25 -168 25 -136 c 2
 25.3125 -40 l 1
 121.21875 -40 l 1
 121 -72 l 2
 121 -104 121 -103.999023438 154.25 -104 c 2
 185.15625 -104 l 2
 217.12109375 -104 217.125 -104 217.125 -72 c 2
 217.125 -40 l 1
 217.125 56 l 1
 217.125 120 l 2
 217.125 151.999023438 217.12109375 152 185.162109375 152 c 2
 185.15625 152 l 1
 88.9375 152 l 2
 56.97265625 152 25 184 25 216 c 2
 25 536 l 2
 25 568 56.97265625 600 88.9375 600 c 2
EndSplineSet
Validated: 524289
EndChar

StartChar: T
Encoding: 84 84 53
Width: 340
GlyphClass: 2
Flags: HMW
HStem: -200 21G<122 218 122 122> 504 96<10 122 10 330 218 330 218 218>
VStem: 122 96<-200 504 -200 504>
LayerCount: 2
Fore
SplineSet
10 600 m 1
 330 600 l 1
 330 504 l 1
 218 504 l 1
 218 -200 l 1
 122 -200 l 1
 122 504 l 1
 10 504 l 1
 10 600 l 1
EndSplineSet
Validated: 1
EndChar

StartChar: U
Encoding: 85 85 54
Width: 338
GlyphClass: 2
Flags: MW
HStem: -200 96<72.9873 153 152.988 153 153 185 185 185.012 185.012 200.902 152.988 249> 580 20G<25 121 121 121 217 313 313 313> 580 20G<25 121 121 121 217 313 313 313>
VStem: 25 96<-87.999 -72 -72 600> 217 96<-72 600>
LayerCount: 2
Fore
SplineSet
25 600 m 1xd8
 121 600 l 1
 121 -72 l 2
 121 -103.998046875 121.209960938 -104 152.98828125 -104 c 2
 153 -104 l 1
 185 -104 l 1
 185.01171875 -104 l 2
 216.791992188 -104 217 -103.998046875 217 -72 c 2
 217 600 l 1
 313 600 l 1
 313 -136 l 2
 313 -168 281.025390625 -200 249 -200 c 2
 185 -200 l 1
 89 -200 l 2
 56.974609375 -200 25 -168 25 -136 c 2
 25 600 l 1xd8
EndSplineSet
Validated: 524289
EndChar

StartChar: V
Encoding: 86 86 55
Width: 424
GlyphClass: 2
Flags: HMW
HStem: -200 21G<164 260 164 164> -200 21G<164 260 164 164> 580 20G<20 116 116 116 308 404 404 404> 580 20G<20 116 116 116 308 404 404 404>
VStem: 20 96<600 600> 308 96<600 600>
LayerCount: 2
Fore
SplineSet
20 600 m 1xac
 116 600 l 1
 212 0 l 1
 308 600 l 1
 404 600 l 1
 260 -200 l 1
 164 -200 l 1
 20 600 l 1xac
EndSplineSet
Validated: 1
EndChar

StartChar: W
Encoding: 87 87 56
Width: 402
GlyphClass: 2
Flags: MW
HStem: -200 21G<25.001 96.375 305.638 377> 580 20G<25.001 121.001 281.001 377>
VStem: 25.001 96.002<72 600> 281.003 95.9971<72 600>
LayerCount: 2
Fore
SplineSet
25.0009765625 600 m 5
 121.000976562 600 l 5
 121.002929688 72 l 5
 201.002929688 312 l 5
 281.002929688 72 l 5
 281.000976562 600 l 5
 377 600 l 5
 377 -200 l 5
 313.000976562 -200 l 5
 201.0859375 104 l 5
 89.0009765625 -200 l 5
 25.0009765625 -200 l 5
 25.0009765625 600 l 5
EndSplineSet
Validated: 524289
EndChar

StartChar: X
Encoding: 88 88 57
Width: 402
GlyphClass: 2
Flags: MW
HStem: -200 21G<25 121 25 25 281 377 281 281> -200 21G<25 121 25 25 281 377 281 281> 580 20G<25 121 121 121 281 377 377 377> 580 20G<25 121 121 121 281 377 377 377>
LayerCount: 2
Fore
SplineSet
25 600 m 1x60
 121 600 l 1
 201 264 l 1
 281 600 l 1x60
 377 600 l 1
 281 184 l 1
 377 -200 l 1
 281 -200 l 1
 201 88 l 1
 121 -200 l 1x90
 25 -200 l 1
 121 184 l 1
 25 600 l 1x60
EndSplineSet
Validated: 1
EndChar

StartChar: Y
Encoding: 89 89 58
Width: 384
GlyphClass: 2
Flags: MW
HStem: -200 21G<144 240 144 144> -200 21G<144 240 144 144> 580 20G<0 96 96 96 288 384 384 384> 580 20G<0 96 96 96 288 384 384 384>
VStem: 144 96<-200 56 56 120 -200 120>
LayerCount: 2
Fore
SplineSet
0 600 m 1xa8
 96 600 l 1
 192 248 l 1
 288 600 l 1
 384 600 l 1
 240 120 l 1
 240 56 l 1
 240 -200 l 1
 144 -200 l 1
 144 56 l 1
 144 120 l 1
 0 600 l 1xa8
EndSplineSet
Validated: 1
EndChar

StartChar: Z
Encoding: 90 90 59
Width: 338
GlyphClass: 2
Flags: MW
HStem: -200 96<25 313 144 313 144 313> 504 96<25 194 25 217>
VStem: 25 288<-200 -104>
LayerCount: 2
Fore
SplineSet
25 600 m 1
 217 600 l 1
 313 600 l 1
 144 -104 l 1
 313 -104 l 1
 313 -200 l 1
 121 -200 l 1
 25 -200 l 1
 194 504 l 1
 25 504 l 1
 25 600 l 1
EndSplineSet
Validated: 1
EndChar

StartChar: bracketleft
Encoding: 91 91 60
Width: 242
GlyphClass: 2
Flags: MW
HStem: -200 96<121 217 121 217> 504 96<121 217 121 121>
VStem: 25 96<-104 504 -104 600> 25 192<-200 -104 504 600>
LayerCount: 2
Fore
SplineSet
25 600 m 1xd0
 217 600 l 1
 217 504 l 1xd0
 121 504 l 1
 121 -104 l 1xe0
 217 -104 l 1
 217 -200 l 1
 25 -200 l 1
 25 600 l 1xd0
EndSplineSet
Validated: 1
EndChar

StartChar: backslash
Encoding: 92 92 61
Width: 322
GlyphClass: 2
Flags: MW
HStem: -200 21G<201 297 201 201> -200 21G<201 297 201 201> 580 20G<25 121 121 121> 580 20G<25 121 121 121>
VStem: 25 272
LayerCount: 2
Fore
SplineSet
25 600 m 1xa8
 121 600 l 1
 297 -200 l 1
 201 -200 l 1
 25 600 l 1xa8
EndSplineSet
Validated: 1
EndChar

StartChar: bracketright
Encoding: 93 93 62
Width: 241
GlyphClass: 2
Flags: MW
HStem: -200 96<25 120.999 25 216.999 25 120.999> 504 96<25 120.999 25 216.999>
VStem: 25 191.999 120.999 96
LayerCount: 2
Fore
SplineSet
216.999023438 600 m 1xe0
 216.999023438 -200 l 1
 25 -200 l 1
 25 -104 l 1xe0
 120.999023438 -104 l 1
 120.999023438 504 l 1xd0
 25 504 l 1
 25 600 l 1
 216.999023438 600 l 1xe0
EndSplineSet
Validated: 524289
EndChar

StartChar: asciicircum
Encoding: 94 94 63
Width: 375
GlyphClass: 2
Flags: MW
HStem: 388 212<25 225 25 225 150 350 150 275>
VStem: 25 325<388 388>
LayerCount: 2
Fore
SplineSet
150 600 m 1
 225 600 l 1
 350 388 l 1
 275 388 l 1
 187 525 l 1
 100 388 l 1
 25 388 l 1
 150 600 l 1
EndSplineSet
Validated: 1
EndChar

StartChar: underscore
Encoding: 95 95 64
Width: 450
GlyphClass: 2
Flags: MW
HStem: -200 96<25 425 25 425>
LayerCount: 2
Fore
SplineSet
25 -104 m 1
 425 -104 l 1
 425 -200 l 1
 25 -200 l 1
 25 -104 l 1
EndSplineSet
Validated: 1
EndChar

StartChar: grave
Encoding: 96 96 65
Width: 194
GlyphClass: 2
Flags: MW
HStem: 424 176<73 121 25 169 73 73>
VStem: 25 144
LayerCount: 2
Fore
SplineSet
25 600 m 1
 121 600 l 1
 169 424 l 1
 73 424 l 1
 25 600 l 1
EndSplineSet
Validated: 1
EndChar

StartChar: a
Encoding: 97 97 66
Width: 404
GlyphClass: 2
Flags: HMW
HStem: -200 21G<10 106 10 10 298 394 298 298> -200 21G<10 106 10 10 298 394 298 298> 40 80<157 247 157 259.5 144.5 247> 580 20G<154 250 250 250> 580 20G<154 250 250 250>
LayerCount: 2
Fore
SplineSet
154 600 m 1xb0
 250 600 l 1
 394 -200 l 1
 298 -200 l 1
 259.5 40 l 1
 144.5 40 l 1
 106 -200 l 1
 10 -200 l 1
 154 600 l 1xb0
202 368 m 1
 157 120 l 1
 247 120 l 1
 202 368 l 1
EndSplineSet
Validated: 524289
EndChar

StartChar: b
Encoding: 98 98 67
Width: 370
GlyphClass: 2
Flags: MW
HStem: -200 96 152.003 95.9965 504.003 95.9965
VStem: 25 95.9688 248.938 96.0625
LayerCount: 2
Fore
SplineSet
25 600 m 1
 281.03125 600 l 2
 313.024414062 600 345 568 345 536 c 2
 345 248 l 1
 281 184 l 1
 345 152 l 1
 345 -136 l 2
 345 -168 312.930664062 -200 280.9375 -200 c 2
 25 -200 l 1
 25 600 l 1
147.28125 504 m 0
 123.220703125 503.89453125 120.913085938 502.345703125 120.913085938 479.907226562 c 0
 120.913085938 477.516601562 120.939453125 474.888671875 120.96875 472 c 2
 120.96875 281 l 2
 120.96875 248.37109375 120.975585938 248 152.96875 248 c 2
 216.71875 248 l 2
 248.62890625 248 248.9375 248 248.9375 279 c 2
 248.9375 472 l 2
 248.9375 504 248.930664062 504 216.9375 504 c 2
 152.96875 504 l 2
 151.622070312 504 150.33203125 504.00390625 149.095703125 504.00390625 c 0
 148.477539062 504.00390625 147.873046875 504.002929688 147.28125 504 c 0
147.28125 151.999023438 m 0
 121.235351562 151.880859375 120.96875 150.016601562 120.96875 120.866210938 c 2
 120.96875 118.999023438 l 1
 120.96875 -72.0009765625 l 1
 120.96875 -73.3359375 l 2
 120.96875 -104.000976562 121.192382812 -104.000976562 152.96875 -104.000976562 c 2
 216.9375 -104.000976562 l 2
 248.930664062 -104.000976562 248.9375 -104.000976562 248.9375 -72.0009765625 c 2
 248.9375 120.999023438 l 2
 248.9375 151.999023438 248.711914062 151.999023438 216.71875 151.999023438 c 2
 152.96875 151.999023438 l 2
 151.622070312 151.999023438 150.331054688 152.002929688 149.094726562 152.002929688 c 0
 148.4765625 152.002929688 147.872070312 152.001953125 147.28125 151.999023438 c 0
EndSplineSet
Validated: 524289
EndChar

StartChar: c
Encoding: 99 99 68
Width: 338
GlyphClass: 2
Flags: MW
HStem: -200 96 503.906 95.9688
VStem: 25.001 96 217.001 96
LayerCount: 2
Fore
SplineSet
249.000976562 600 m 2
 280.98828125 600 313 567.986328125 313 535.999023438 c 2
 313 439.999023438 l 1
 217 439.999023438 l 1
 217 503.999023438 l 1
 153 503.905273438 l 2
 121 503.905273438 121 503.901367188 121 471.905273438 c 2
 121 -72.0009765625 l 2
 121 -103.700195312 121 -104.000976562 152.107421875 -104.000976562 c 2
 153 -104.000976562 l 1
 217 -104.000976562 l 1
 217 -40.0322265625 l 1
 313 -40.0009765625 l 1
 313 -136.000976562 l 2
 313 -168.000976562 281 -200.000976562 249 -200.000976562 c 2
 89 -200.000976562 l 2
 57 -200 25 -168.000976562 25 -136.000976562 c 2
 25 535.999023438 l 2
 25 567.935546875 56.873046875 599.875 88.8095703125 599.875 c 2
 89.0009765625 599.875 l 1
 249.000976562 600 l 2
EndSplineSet
Validated: 524289
EndChar

StartChar: d
Encoding: 100 100 69
Width: 354
GlyphClass: 2
Flags: MW
HStem: -200 96.002<150.488 150.494 150.494 201.131 201.131 201.143 201.143 217.032 150.488 264.947> 503.999 96
VStem: 25 95.8418<-87.9976 -71.998 -71.998 472.001> 232.922 96.0781<-71.998 472.001 472.001 472.492>
LayerCount: 2
Fore
SplineSet
25 600 m 1
 264.947265625 599.999023438 l 2
 296.97265625 599.999023438 329 567.999023438 329 535.999023438 c 2
 329 -136 l 2
 329 -168 296.97265625 -200 264.947265625 -200 c 2
 25 -200 l 1
 25 600 l 1
152.869140625 503.999023438 m 2
 122.6015625 503.998046875 120.809570312 503.998046875 120.809570312 482.07421875 c 0
 120.809570312 479.129882812 120.841796875 475.790039062 120.841796875 472.000976562 c 2
 120.841796875 -71.998046875 l 2
 120.841796875 -103.997070312 120.841796875 -103.998046875 150.48828125 -103.998046875 c 2
 150.494140625 -103.998046875 l 1
 201.130859375 -103.998046875 l 1
 201.142578125 -103.998046875 l 2
 232.921875 -103.998046875 232.921875 -103.99609375 232.921875 -71.998046875 c 2
 232.921875 472.000976562 l 2
 232.921875 472.982421875 232.922851562 473.93359375 232.922851562 474.85546875 c 0
 232.922851562 503.836914062 232.444335938 504.000976562 201.418945312 504.000976562 c 2
 200.89453125 504.000976562 l 1
 152.869140625 503.999023438 l 2
EndSplineSet
Validated: 524289
EndChar

StartChar: e
Encoding: 101 101 70
Width: 306
GlyphClass: 2
Flags: MW
HStem: -200 96<121 281 121 281> 152 96<121 281 121 281> 504 96<121 281 121 121>
VStem: 25 96<-104 152 248 504> 25 256<-200 -104 152 248 504 600>
CounterMasks: 1 e0
LayerCount: 2
Fore
SplineSet
25 600 m 1xe8
 281 600 l 1
 281 504 l 1xe8
 121 504 l 1
 121 248 l 1xf0
 281 248 l 1
 281 152 l 1xe8
 121 152 l 1
 121 -104 l 1xf0
 281 -104 l 1
 281 -200 l 1
 25 -200 l 1
 25 600 l 1xe8
EndSplineSet
Validated: 1
EndChar

StartChar: f
Encoding: 102 102 71
Width: 306
GlyphClass: 2
Flags: MW
HStem: -200 21G<25 121 25 25> -200 21G<25 121 25 25> 152 96<121 281 121 281> 504 96<121 281 121 121>
VStem: 25 96<-200 152 248 504> 25 256<152 248 504 600>
LayerCount: 2
Fore
SplineSet
25 600 m 1xb4
 281 600 l 1
 281 504 l 1xb4
 121 504 l 1
 121 248 l 1xb8
 281 248 l 1
 281 152 l 1xb4
 121 152 l 1
 121 -200 l 1
 25 -200 l 1xb8
 25 600 l 1xb4
EndSplineSet
Validated: 1
EndChar

StartChar: g
Encoding: 103 103 72
Width: 354
GlyphClass: 2
Flags: MW
HStem: -200 96 152 96 503.906 95.9688
VStem: 25.001 96 169.001 160 233.001 96
LayerCount: 2
Fore
SplineSet
265.000976562 600 m 2xf4
 296.990234375 600 329 567.989257812 329 535.999023438 c 2
 329 439.999023438 l 1
 233 439.999023438 l 1
 233 503.999023438 l 1
 153 503.905273438 l 2
 121 503.905273438 121 503.901367188 121 471.905273438 c 2
 121 -72.0009765625 l 2
 121 -103.700195312 121 -104.000976562 152.107421875 -104.000976562 c 2
 153 -104.000976562 l 1
 233 -104.000976562 l 1
 233 151.967773438 l 1xf4
 169 151.999023438 l 1
 169 247.999023438 l 1
 329 247.999023438 l 1xf8
 329 -136.000976562 l 2
 329 -168.001953125 297 -200.000976562 265 -200.000976562 c 2
 89 -200.000976562 l 2
 57 -200 25 -168.001953125 25 -136.000976562 c 2
 25 535.999023438 l 2
 25 567.936523438 56.873046875 599.875 88.8095703125 599.875 c 2
 89.0009765625 599.875 l 1
 265.000976562 600 l 2xf4
EndSplineSet
Validated: 524289
EndChar

StartChar: h
Encoding: 104 104 73
Width: 354
GlyphClass: 2
Flags: MW
HStem: -200 21G<25 121 25 25 233 329.001 233 233> 152 96<121 233 121 233> 580 20G<25 121 121 121 233 329.001 329.001 329.001>
VStem: 25 96<-200 152 248 600> 233 96.001<-200 152 152 152 248 600 -200 600>
LayerCount: 2
Fore
SplineSet
25 600 m 1
 121 600 l 1
 121 248 l 1
 233 248 l 1
 233 600 l 1
 329.000976562 600 l 1
 329.000976562 -200 l 1
 233 -200 l 1
 233 152 l 1
 121 152 l 1
 121 -200 l 1
 25 -200 l 1
 25 600 l 1
EndSplineSet
Validated: 524289
EndChar

StartChar: i
Encoding: 105 105 74
Width: 146
GlyphClass: 2
Flags: MW
HStem: -200 21G<25 121 25 25> -200 21G<25 121 25 25> 580 20G<25 121 121 121> 580 20G<25 121 121 121>
VStem: 25 96<-200 600 -200 600>
LayerCount: 2
Fore
SplineSet
25 600 m 1xa8
 121 600 l 1
 121 -200 l 1
 25 -200 l 1
 25 600 l 1xa8
EndSplineSet
Validated: 1
EndChar

StartChar: j
Encoding: 106 106 75
Width: 322
GlyphClass: 2
Flags: MW
HStem: -200 96<72.9873 153 152.988 153 153 171.5 171.5 171.506 171.506 186.179 152.988 233> 580 20G<201.001 297 297 297> 580 20G<201.001 297 297 297>
VStem: 25.001 96 201.001 96
LayerCount: 2
Fore
SplineSet
201.000976562 600 m 1xd8
 297 600 l 1
 297 -136 l 2
 297 -168 265 -200 233 -200 c 2
 89 -200 l 2
 56.974609375 -200 25 -168 25 -136 c 2
 25 120 l 1
 121 120 l 1
 121 -72 l 2
 121 -103.998046875 121.208007812 -104 152.98828125 -104 c 2
 153 -104 l 1
 171.5 -104 l 1
 171.505859375 -104 l 2
 200.8515625 -104 201.000976562 -103.999023438 201.000976562 -72.966796875 c 2
 201.000976562 -72 l 1
 201.000976562 600 l 1xd8
EndSplineSet
Validated: 524289
EndChar

StartChar: k
Encoding: 107 107 76
Width: 370
GlyphClass: 2
Flags: MW
HStem: -200 21G<25 120.501 25 25 248.504 344.504 248.504 248.504> 152 96<128.997 185 137 185 185 193 137 233> 580 20G<25 121 121 121 248.997 344.997 344.997 344.997>
VStem: 25 95.501 248.504 96
LayerCount: 2
Fore
SplineSet
25 600 m 1
 121 600 l 1
 121 264 l 2
 121 248 121 248 137 248 c 2
 185 248 l 2
 201 248 225 248 225 264 c 1
 248.997070312 600 l 1
 344.997070312 600 l 1
 313 248 l 1
 281 184 l 1
 345 152 l 1
 344.50390625 -200 l 1
 248.50390625 -200 l 1
 249 136 l 2
 249 152 249 152 233 152 c 2
 136.997070312 152 l 2
 120.997070312 152 120.997070312 152 120.997070312 136 c 2
 120.500976562 -200 l 1
 25 -200 l 1
 25 600 l 1
EndSplineSet
Validated: 524289
EndChar

StartChar: l
Encoding: 108 108 77
Width: 259
GlyphClass: 2
Flags: MW
HStem: -200 96<121 249 121 249> 580 20G<25 121 121 121> 580 20G<25 121 121 121>
VStem: 25 96<-104 600 -104 600 -104 600>
LayerCount: 2
Fore
SplineSet
25 600 m 1xd0
 121 600 l 1
 121 -104 l 1
 249 -104 l 1
 249 -200 l 1
 25 -200 l 1
 25 600 l 1xd0
EndSplineSet
Validated: 1
EndChar

StartChar: m
Encoding: 109 109 78
Width: 434
GlyphClass: 2
Flags: MW
HStem: -201 21G<25 121 313 408.999> 579 20G<25 95.6711 338.339 408.999>
VStem: 25 96<-201 279> 313 95.999<-201 279>
LayerCount: 2
Fore
SplineSet
25 -201 m 5
 25 599 l 5
 89 599 l 5
 217.084960938 215 l 5
 345.000976562 599 l 5
 408.999023438 599 l 5
 408.999023438 -201 l 5
 313 -201 l 5
 313.002929688 279 l 5
 217.001953125 7 l 5
 121.001953125 279 l 5
 121 -201 l 5
 25 -201 l 5
EndSplineSet
Validated: 524289
EndChar

StartChar: n
Encoding: 110 110 79
Width: 402
GlyphClass: 2
Flags: MW
HStem: -200 21G<25 121.031 25 25 280.969 377 280.969 280.969> -200 21G<25 121.031 25 25 280.969 377 280.969 280.969> 580 20G<25 121.094 121.094 121.094 280.969 377 377 377> 580 20G<25 121.094 121.094 121.094 280.969 377 377 377>
VStem: 25 96.0312 280.969 96.0312
LayerCount: 2
Fore
SplineSet
25 600 m 1xac
 121.09375 600 l 1
 280.96875 56 l 1
 280.96875 600 l 1
 377 600 l 1
 377 -200 l 1
 280.96875 -200 l 1
 120.6875 344 l 1
 121.03125 -200 l 1
 25 -200 l 1
 25 600 l 1xac
EndSplineSet
Validated: 524289
EndChar

StartChar: o
Encoding: 111 111 80
Width: 338
GlyphClass: 2
Flags: MW
HStem: -200 96<73 150.625 150.619 150.625 150.625 185.25 185.25 185.262 185.262 201.124 150.619 249> 504.004 95.9961
VStem: 25 96<-88.0122 -72.0254 -72.0254 -72 -72 472> 217 96<-72.082 -72 -72 472 472 474.861 474.861 489.315>
LayerCount: 2
Fore
SplineSet
89 600 m 2
 249 600 l 2
 281 600 313 568 313 536 c 2
 313 -136 l 2
 313 -168 281 -200 249 -200 c 2
 89 -200 l 2
 57 -200 25 -168 25 -136 c 2
 25 536 l 2
 25 568 57 600 89 600 c 2
147 504 m 0
 122.506835938 503.896484375 120.967773438 502.444335938 120.967773438 482.028320312 c 0
 120.967773438 479.094726562 121 475.76953125 121 472 c 2
 121 -72 l 1
 121 -72.025390625 l 2
 121 -103.999023438 121.00390625 -104 150.619140625 -104 c 2
 150.625 -104 l 1
 185.25 -104 l 1
 185.26171875 -104 l 2
 216.986328125 -104 217 -103.998046875 217 -72.08203125 c 2
 217 -72 l 1
 217 472 l 1
 217 474.861328125 l 2
 217 503.768554688 216.5234375 504 185.739257812 504 c 2
 185 504 l 1
 153 504 l 2
 151.571289062 504 150.2109375 504.00390625 148.909179688 504.00390625 c 0
 148.258789062 504.00390625 147.622070312 504.002929688 147 504 c 0
EndSplineSet
Validated: 524289
EndChar

StartChar: p
Encoding: 112 112 81
Width: 370
GlyphClass: 2
Flags: MW
HStem: -200 21G<25 120.719 25 25> -200 21G<25 120.719 25 25> 152 96<152.937 234.905 152.937 281 121 234.905> 504.23 95.7702
VStem: 25 95.9375 248.875 96.125
LayerCount: 2
Fore
SplineSet
25 600 m 1xbc
 281.03125 600 l 2
 313.015625 600 345 568 345 536 c 2
 345 216 l 2
 345 184 313 152 281 152 c 2
 121 152 l 1
 120.71875 -200 l 1
 25 -200 l 1
 25 600 l 1xbc
138.53125 504.21875 m 0
 137.258789062 504.1953125 136.060546875 504.125 134.936523438 504 c 0
 121.455078125 502.5 120.936523438 496 120.936523438 472 c 2
 120.936523438 281 l 2
 120.936523438 248.37109375 120.952148438 248 152.936523438 248 c 2
 234.905273438 248 l 1
 248.38671875 249.4296875 248.874023438 256.119140625 248.874023438 279 c 2
 248.874023438 472 l 1
 248.874023438 472.09375 l 2
 248.874023438 504 248.858398438 504 216.905273438 504 c 2
 152.936523438 504 l 2
 147.591796875 504 143.361328125 504.229492188 139.80078125 504.229492188 c 0
 139.368164062 504.229492188 138.9453125 504.2265625 138.53125 504.21875 c 0
EndSplineSet
Validated: 524289
EndChar

StartChar: q
Encoding: 113 113 82
Width: 354
GlyphClass: 2
Flags: MW
HStem: -200 96 40 96 504.003 95.9965
VStem: 25 96<-87.998 -71.999 -71.999 472.001> 185 144<40.001 136.001 136.001 136.001> 233 96<-71.999 40.001 40.001 40.001 136.001 472.001 472.001 472.517>
LayerCount: 2
Fore
SplineSet
89 600 m 2xf4
 201 600 l 1
 265 600 l 2
 297.025390625 600 329 568 329 536 c 2
 329 -136 l 2
 329 -168 297.025390625 -200 265 -200 c 2
 201 -200 l 1
 89 -200 l 2
 56.974609375 -200 25 -168 25 -136 c 2
 25 536 l 2
 25 568 56.974609375 600 89 600 c 2xf4
147.28125 504 m 0
 121.442382812 503.887695312 120.999023438 502.125976562 120.999023438 474.986328125 c 0
 120.999023438 474.0234375 121 473.028320312 121 472.000976562 c 2
 121 -71.9990234375 l 2
 121 -103.997070312 121.209960938 -103.999023438 152.98828125 -103.999023438 c 2
 153 -103.999023438 l 1
 201 -103.999023438 l 1
 201.01171875 -103.999023438 l 2
 232.791992188 -103.999023438 233 -103.997070312 233 -71.9990234375 c 2
 233 40.0009765625 l 1xf4
 185 40.0009765625 l 1
 185 136.000976562 l 1xf8
 233 136.000976562 l 1
 233 472.000976562 l 2
 233 473.032226562 233.000976562 474.030273438 233.000976562 474.99609375 c 0
 233.000976562 503.76953125 232.500976562 504 201.739257812 504 c 2
 201 504 l 1
 153 504 l 2
 151.643554688 504 150.346679688 504.00390625 149.104492188 504.00390625 c 0
 148.483398438 504.00390625 147.875976562 504.002929688 147.28125 504 c 0
EndSplineSet
Validated: 524289
EndChar

StartChar: r
Encoding: 114 114 83
Width: 370
GlyphClass: 2
Flags: MW
HStem: -200 21G<25 121.719 25 25 248.656 344.594 248.656 248.656> -200 21G<25 121.719 25 25 248.656 344.594 248.656 248.656> 152 96<152.937 153.031 153.031 216.75> 504.23 95.7702
VStem: 25 95.9762 248.656 95.9375
LayerCount: 2
Fore
SplineSet
25 600 m 1xbc
 281.03125 600 l 2
 313.015625 600 345 568 345 536 c 2
 344.6875 248 l 1
 280.71875 184 l 1
 344.90625 152 l 1
 344.59375 -200 l 1
 248.65625 -200 l 1
 248.96875 121 l 2
 248.969726562 121.779296875 248.970703125 122.5390625 248.970703125 123.279296875 c 0
 248.970703125 152 247.930664062 152 216.75 152 c 2
 153.03125 152 l 2
 123.639648438 152 120.9765625 152 120.9765625 127.143554688 c 0
 120.9765625 124.680664062 122.034179688 121.974609375 122.03125 119 c 2
 121.71875 -200 l 1
 25 -200 l 1
 25 600 l 1xbc
138.53125 504.21875 m 0
 137.258789062 504.1953125 136.060546875 504.125 134.936523438 504 c 0
 121.455078125 502.5 120.936523438 496 120.936523438 472 c 2
 120.936523438 281 l 2
 120.936523438 248.37109375 120.952148438 248 152.936523438 248 c 2
 234.905273438 248 l 1
 248.38671875 249.4296875 248.874023438 256.119140625 248.874023438 279 c 2
 248.874023438 472 l 1
 248.874023438 472.09375 l 2
 248.874023438 504 248.858398438 504 216.905273438 504 c 2
 152.936523438 504 l 2
 147.591796875 504 143.361328125 504.229492188 139.80078125 504.229492188 c 0
 139.368164062 504.229492188 138.9453125 504.2265625 138.53125 504.21875 c 0
EndSplineSet
Validated: 524289
EndChar

StartChar: s
Encoding: 115 115 84
Width: 338
GlyphClass: 2
Flags: MW
HStem: -200 96<72.9551 185.156 154.25 185.156 185.156 201.139 154.25 248.75> 152 96<72.9551 248.75 153.188 185.156 185.156 185.162> 504 96<137.207 153.188 153.188 185>
VStem: 25 96.2188 217.125 95.5625<-72 -40 -40 56 56 120 120 136>
CounterMasks: 1 e0
LayerCount: 2
Fore
SplineSet
88.9375 600 m 2
 248.75 600 l 2
 280.71484375 600 312.6875 568 312.6875 536 c 2
 313 440 l 1
 217.09375 440 l 1
 217.09375 472.25 l 2
 216.98828125 504 217 504 185 504 c 2
 153.1875 504 l 2
 121.225585938 504 121.21875 504 121.21875 472 c 2
 121.21875 376 l 1
 121.21875 280 l 2
 121.21875 248 121.225585938 248 153.1875 248 c 2
 248.75 248 l 2
 280.71484375 248 312.6875 216 312.6875 184 c 2
 312.6875 -136 l 2
 312.6875 -168 280.71484375 -200 248.75 -200 c 2
 88.9375 -200 l 2
 56.97265625 -200 25 -168 25 -136 c 2
 25.3125 -40 l 1
 121.21875 -40 l 1
 121 -72 l 2
 121 -104 121 -103.999023438 154.25 -104 c 2
 185.15625 -104 l 2
 217.12109375 -104 217.125 -104 217.125 -72 c 2
 217.125 -40 l 1
 217.125 56 l 1
 217.125 120 l 2
 217.125 151.999023438 217.12109375 152 185.162109375 152 c 2
 185.15625 152 l 1
 88.9375 152 l 2
 56.97265625 152 25 184 25 216 c 2
 25 536 l 2
 25 568 56.97265625 600 88.9375 600 c 2
EndSplineSet
Validated: 524289
EndChar

StartChar: t
Encoding: 116 116 85
Width: 340
GlyphClass: 2
Flags: HMW
HStem: -200 21G<122 218 122 122> 504 96<10 122 10 330 218 330 218 218>
VStem: 122 96<-200 504 -200 504>
LayerCount: 2
Fore
SplineSet
10 600 m 1
 330 600 l 1
 330 504 l 1
 218 504 l 1
 218 -200 l 1
 122 -200 l 1
 122 504 l 1
 10 504 l 1
 10 600 l 1
EndSplineSet
Validated: 1
EndChar

StartChar: u
Encoding: 117 117 86
Width: 338
GlyphClass: 2
Flags: MW
HStem: -200 96<72.9873 153 152.988 153 153 185 185 185.012 185.012 200.902 152.988 249> 580 20G<25 121 121 121 217 313 313 313> 580 20G<25 121 121 121 217 313 313 313>
VStem: 25 96<-87.999 -72 -72 600> 217 96<-72 600>
LayerCount: 2
Fore
SplineSet
25 600 m 1xd8
 121 600 l 1
 121 -72 l 2
 121 -103.998046875 121.209960938 -104 152.98828125 -104 c 2
 153 -104 l 1
 185 -104 l 1
 185.01171875 -104 l 2
 216.791992188 -104 217 -103.998046875 217 -72 c 2
 217 600 l 1
 313 600 l 1
 313 -136 l 2
 313 -168 281.025390625 -200 249 -200 c 2
 185 -200 l 1
 89 -200 l 2
 56.974609375 -200 25 -168 25 -136 c 2
 25 600 l 1xd8
EndSplineSet
Validated: 524289
EndChar

StartChar: v
Encoding: 118 118 87
Width: 424
GlyphClass: 2
Flags: HMW
HStem: -200 21G<164 260 164 164> -200 21G<164 260 164 164> 580 20G<20 116 116 116 308 404 404 404> 580 20G<20 116 116 116 308 404 404 404>
VStem: 20 96<600 600> 308 96<600 600>
LayerCount: 2
Fore
SplineSet
20 600 m 1xac
 116 600 l 1
 212 0 l 1
 308 600 l 1
 404 600 l 1
 260 -200 l 1
 164 -200 l 1
 20 600 l 1xac
EndSplineSet
Validated: 1
EndChar

StartChar: w
Encoding: 119 119 88
Width: 402
GlyphClass: 2
Flags: W
HStem: -200 21G<25.001 96.375 305.638 377> 580 20G<25.001 121.001 281.001 377>
VStem: 25.001 96.002<72 600> 281.003 95.9971<72 600>
LayerCount: 2
Fore
SplineSet
25.0009765625 600 m 5
 121.000976562 600 l 5
 121.002929688 72 l 5
 201.002929688 312 l 5
 281.002929688 72 l 5
 281.000976562 600 l 5
 377 600 l 5
 377 -200 l 5
 313.000976562 -200 l 5
 201.0859375 104 l 5
 89.0009765625 -200 l 5
 25.0009765625 -200 l 5
 25.0009765625 600 l 5
EndSplineSet
Validated: 524289
EndChar

StartChar: x
Encoding: 120 120 89
Width: 402
GlyphClass: 2
Flags: MW
HStem: -200 21G<25 121 25 25 281 377 281 281> -200 21G<25 121 25 25 281 377 281 281> 580 20G<25 121 121 121 281 377 377 377> 580 20G<25 121 121 121 281 377 377 377>
LayerCount: 2
Fore
SplineSet
25 600 m 1x60
 121 600 l 1
 201 264 l 1
 281 600 l 1x60
 377 600 l 1
 281 184 l 1
 377 -200 l 1
 281 -200 l 1
 201 88 l 1
 121 -200 l 1x90
 25 -200 l 1
 121 184 l 1
 25 600 l 1x60
EndSplineSet
Validated: 1
EndChar

StartChar: y
Encoding: 121 121 90
Width: 384
GlyphClass: 2
Flags: MW
HStem: -200 21G<144 240 144 144> -200 21G<144 240 144 144> 580 20G<0 96 96 96 288 384 384 384> 580 20G<0 96 96 96 288 384 384 384>
VStem: 144 96<-200 56 56 120 -200 120>
LayerCount: 2
Fore
SplineSet
0 600 m 1xa8
 96 600 l 1
 192 248 l 1
 288 600 l 1
 384 600 l 1
 240 120 l 1
 240 56 l 1
 240 -200 l 1
 144 -200 l 1
 144 56 l 1
 144 120 l 1
 0 600 l 1xa8
EndSplineSet
Validated: 1
EndChar

StartChar: z
Encoding: 122 122 91
Width: 338
GlyphClass: 2
Flags: MW
HStem: -200 96<25 313 144 313 144 313> 504 96<25 194 25 217>
VStem: 25 288<-200 -104>
LayerCount: 2
Fore
SplineSet
25 600 m 1
 217 600 l 1
 313 600 l 1
 144 -104 l 1
 313 -104 l 1
 313 -200 l 1
 121 -200 l 1
 25 -200 l 1
 194 504 l 1
 25 504 l 1
 25 600 l 1
EndSplineSet
Validated: 1
EndChar

StartChar: braceleft
Encoding: 123 123 92
Width: 242
GlyphClass: 2
Flags: MW
HStem: -200 96<73 217 121 217 121 217> 504 96<121 217 121 121>
VStem: 25 96<-104 152 152 152 248 504 -104 539 -104 539.003 -104 553.502> 25 192<-136 -104 -200 152 504 539 539 539.003 539.003 553.502>
LayerCount: 2
Fore
SplineSet
89 600 m 2xd0
 217 600 l 1
 217 504 l 1xd0
 121 504 l 1
 121 -104 l 1xe0
 217 -104 l 1
 217 -200 l 1
 89 -200 l 2
 57 -200 25 -168 25 -136 c 2xd0
 25 152 l 1
 89 184 l 1
 25 248 l 1xe0
 25 539 l 1
 25 539.002929688 l 2
 25 568.001953125 57.0009765625 600 89 600 c 2xd0
EndSplineSet
Validated: 524289
EndChar

StartChar: bar
Encoding: 124 124 93
Width: 146
GlyphClass: 2
Flags: MW
HStem: -200 21G<25 121 25 25> -200 21G<25 121 25 25> 580 20G<25 121 121 121> 580 20G<25 121 121 121>
VStem: 25 96<-200 600 -200 600>
LayerCount: 2
Fore
SplineSet
25 600 m 1xa8
 121 600 l 1
 121 -200 l 1
 25 -200 l 1
 25 600 l 1xa8
EndSplineSet
Validated: 1
EndChar

StartChar: braceright
Encoding: 125 125 94
Width: 242
GlyphClass: 2
Flags: MW
HStem: -200 96<25 121 25 153 25 121> 504 96<25 121 25 153>
VStem: 25 192<-152 -136 -136 -104 -104 -104 504 539 539 539.003> 121 96<-104 152 248 504 504 504>
LayerCount: 2
Fore
SplineSet
25 600 m 1xe0
 153 600 l 2
 184.999023438 600 217 568.001953125 217 539.002929688 c 2
 217 539 l 1xe0
 217 248 l 1
 153 184 l 1
 217 152 l 1xd0
 217 -136 l 2
 217 -168 185 -200 153 -200 c 2
 25 -200 l 1
 25 -104 l 1xe0
 121 -104 l 1
 121 504 l 1xd0
 25 504 l 1
 25 600 l 1xe0
EndSplineSet
Validated: 524289
EndChar

StartChar: asciitilde
Encoding: 126 126 95
Width: 402
GlyphClass: 2
Flags: MW
HStem: 156 122<147 255>
LayerCount: 2
Fore
SplineSet
147 278 m 1
 255 237 l 1
 377 264 l 1
 377 183 l 1
 255 156 l 1
 147 197 l 1
 25 156 l 1
 25 237 l 1
 147 278 l 1
EndSplineSet
Validated: 1
EndChar
